<svg xmlns="http://www.w3.org/2000/svg" width="24" height="24" viewBox="0 0 24 24" fill="none">
 <path d="M16.676 14.7631H15.6235L15.2505 14.4034C16.5561 12.8847 17.3421 10.913 17.3421 8.76809C17.3421 3.98541 13.4653 0.108643 8.68264 0.108643C3.89996 0.108643 0.0231934 3.98541 0.0231934 8.76809C0.0231934 13.5508 3.89996 17.4275 8.68264 17.4275C10.8275 17.4275 12.7992 16.6415 14.3179 15.336L14.6776 15.709V16.7614L21.3388 23.4092L23.3238 21.4242L16.676 14.7631ZM8.68264 14.7631C5.36541 14.7631 2.68764 12.0853 2.68764 8.76809C2.68764 5.45086 5.36541 2.77309 8.68264 2.77309C11.9999 2.77309 14.6776 5.45086 14.6776 8.76809C14.6776 12.0853 11.9999 14.7631 8.68264 14.7631Z" fill="#8F8F8F"/>
</svg>